# xmcd
#
# Track frame offsets:
#	150
#	33903
#	67378
#	120134
#	143876
#	158014
#	181685
#	205157
#
# Disc length: 3231 seconds
#
# Revision: 1
# Processed by: cddbd v1.4PL0 Copyright (c) Steve Scherf et al.
# Submitted via: audiograbber 1.80.04
#
DISCID=650c9d08
DTITLE=gmuktz - gzkz
DYEAR=4767
DGENRE=frzjfrj
TTITLE0=fzkfk
TTITLE1=fzkfz
TTITLE2=7858
TTITLE3=ghjgf
TTITLE4=fjjh
TTITLE5=ghkc
TTITLE6=fzkzk
TTITLE7=kzfzkitkiz
EXTD=dghjdfj
EXTT0=
EXTT1=
EXTT2=
EXTT3=
EXTT4=
EXTT5=
EXTT6=
EXTT7=
PLAYORDER=
